<svg width="272" height="90" viewBox="0 0 272 90" fill="none" xmlns="http://www.w3.org/2000/svg">
<rect width="272" height="90" rx="10" fill="white"/>
<path d="M90.0762 34.9404C89.105 33.6655 87.4864 33.2185 86.2076 33.2185C82.6303 33.2185 80.0403 35.6175 80.0403 39.253C80.0403 42.8885 82.6303 45.2875 86.2076 45.2875C87.7779 45.2875 89.3965 44.6431 90.3514 43.2519L88.2471 41.6871C87.7293 42.456 86.9038 42.9048 85.8837 42.9048C84.0547 42.9048 82.6465 41.3666 82.6465 39.253C82.6465 37.1394 84.0547 35.6011 85.9648 35.6011C86.9038 35.6011 87.632 35.9381 88.1339 36.5315L90.0762 34.9404Z" fill="#404040"/>
<path d="M95.0132 45.0547H97.4168V39.955H102.5V45.0547H104.903V33.4509H102.5V37.7352H97.4168V33.4509H95.0132V45.0547Z" fill="#404040"/>
<path d="M110.593 45.0836H118.549V42.7009H112.997V40.3913H117.966V38.0086H112.997V35.8053H118.257V33.4226H110.593V45.0836Z" fill="#404040"/>
<path d="M123.947 45.0836H131.028V42.701H126.351V33.4509H123.947V45.0836Z" fill="#404040"/>
<path d="M143.128 34.4425C142.203 33.5655 141.018 33.2185 139.698 33.2185C137.384 33.2185 135.277 34.5261 135.277 36.9785C135.277 40.7586 140.741 39.6365 140.741 41.7198C140.741 42.5195 139.784 42.9048 138.926 42.9048C138.051 42.9048 137.208 42.5032 136.694 41.8317L134.905 43.8145C135.985 44.8411 137.272 45.2875 138.774 45.2875C141.188 45.2875 143.144 44.0471 143.144 41.4791C143.144 37.5066 137.883 38.8368 137.883 36.7704C137.883 35.9217 138.909 35.6011 139.648 35.6011C140.287 35.6011 141.094 35.8419 141.481 36.3543L143.128 34.4425Z" fill="#404040"/>
<path d="M148.429 45.0836H156.385V42.7009H150.833V40.3913H155.802V38.0086H150.833V35.8053H156.094V33.4226H148.429V45.0836Z" fill="#404040"/>
<path d="M167.833 40.4077H165.059L166.437 36.8149L167.833 40.4077ZM160.569 45.0547H163.327L164.274 42.5866H168.683L169.66 45.0547H172.483L167.544 33.4509H165.476L160.569 45.0547Z" fill="#404040"/>
<path d="M195.346 38.1635H190.903V40.5468H192.943V42.3541C192.477 42.605 191.674 42.9048 190.584 42.9048C188.447 42.9048 187.051 41.3955 187.051 39.2549C187.051 37.1193 188.447 35.6011 190.584 35.6011C191.852 35.6011 192.67 35.9664 193.343 36.6623L195.106 34.7241C193.969 33.6328 192.382 33.2185 190.584 33.2185C187.035 33.2185 184.445 35.6175 184.445 39.2549C184.445 42.8885 187.035 45.2875 190.584 45.2875C192.253 45.2875 193.871 44.9574 195.346 44.1616V38.1635Z" fill="#404040"/>
<path d="M203.237 35.6054H204.915C205.852 35.6054 206.904 35.7827 206.904 36.9313C206.904 38.176 205.688 38.2087 204.751 38.2087H203.237V35.6054ZM200.834 45.0548H203.237V40.3876H204.504L206.936 45.0548H209.947L207.049 40.1242C208.658 39.8262 209.51 38.5551 209.51 36.9476C209.51 34.2507 207.547 33.4265 205.178 33.4265H200.834V45.0548Z" fill="#404040"/>
<path d="M214.593 45.0836H222.548V42.7009H216.996V40.3913H221.965V38.0086H216.996V35.8053H222.257V33.4226H214.593V45.0836Z" fill="#404040"/>
<path d="M227.946 45.0836H235.902V42.7009H230.35V40.3913H235.32V38.0086H230.35V35.8053H235.611V33.4226H227.946V45.0836Z" fill="#404040"/>
<path d="M241.3 45.0547H243.704V36.7948H243.737L248.809 45.0547H252V33.4509H249.596V41.5135H249.564L244.623 33.4509H241.3V45.0547Z" fill="#404040"/>
<path d="M82.1729 55.2192H83.656C86.028 55.2192 86.5138 57.1177 86.5138 58.1005C86.5138 60.0122 85.0911 60.9811 83.4194 60.9811H82.1729V55.2192ZM81.2061 61.703H83.5653C86.1716 61.703 87.4406 60.077 87.4406 58.1005C87.4406 56.6722 86.7756 54.4973 83.729 54.4973H81.2061V61.703Z" fill="#404040"/>
<path d="M91.0261 61.703H95.8101V60.9811H91.9929V58.4611H95.3771V57.7392H91.9929V55.2192H95.6289V54.4973H91.0261V61.703Z" fill="#404040"/>
<path d="M99.0837 61.7177H100.051V55.7103H100.071L103.87 61.7177H105.087V54.4873H104.119V60.4901H104.102L100.34 54.4827H99.0837V61.7177Z" fill="#404040"/>
<path d="M110.415 61.7177H111.381V55.2192H113.678V54.4973H108.118V55.2192H110.415V61.7177Z" fill="#404040"/>
<path d="M117.102 59.2424L118.442 55.7975H118.462L119.781 59.2424H117.102ZM114.942 61.7177H116.062L116.762 59.9643H120.131L120.841 61.7177H121.962L118.93 54.4827H118.062L114.942 61.7177Z" fill="#404040"/>
<path d="M125.019 61.703H129.259V60.9811H125.986V54.4827H125.019V61.703Z" fill="#404040"/>
<path d="M138.072 55.2192H139.354C140.127 55.2192 140.903 55.4169 140.903 56.4792C140.903 57.5416 140.127 57.7392 139.354 57.7392H138.072V55.2192ZM137.105 61.7177H138.072V58.4611H139.629C141.411 58.4611 141.829 57.4636 141.829 56.4792C141.829 55.4948 141.411 54.4973 139.629 54.4973H137.105V61.7177Z" fill="#404040"/>
<path d="M146.129 55.2192H147.411C148.184 55.2192 148.96 55.4169 148.96 56.4792C148.96 57.5416 148.184 57.7392 147.411 57.7392H146.129V55.2192ZM145.163 61.7177H146.129V58.4611H147.217L149.041 61.7177H150.159L148.227 58.3654C149.277 58.2627 149.886 57.4736 149.886 56.4792C149.886 55.4948 149.469 54.4973 147.686 54.4973H145.163V61.7177Z" fill="#404040"/>
<path d="M154.368 59.2424L155.708 55.7975H155.728L157.047 59.2424H154.368ZM152.208 61.7177H153.328L154.028 59.9643H157.397L158.108 61.7177H159.229L156.196 54.4827H155.328L152.208 61.7177Z" fill="#404040"/>
<path d="M167.915 55.4315C167.342 54.7776 166.354 54.4973 165.417 54.4973C163.221 54.4973 161.802 55.9426 161.802 58.2905C161.802 60.1874 163.101 61.9539 165.367 61.9539C166.999 61.9539 167.855 61.1796 168.066 60.8715L167.251 60.2199C166.827 60.8483 166.203 61.232 165.387 61.232C163.725 61.232 162.728 59.8794 162.728 58.2905C162.728 56.5742 163.786 55.2192 165.387 55.2192C166.042 55.2192 166.707 55.5273 167.11 56.0832L167.915 55.4315Z" fill="#404040"/>
<path d="M172.609 61.7177H173.575V55.2192H175.872V54.4973H170.312V55.2192H172.609V61.7177Z" fill="#404040"/>
<path d="M179.156 61.7177H180.123V54.4827H179.156V61.7177Z" fill="#404040"/>
<path d="M189.57 55.4315C188.996 54.7776 188.008 54.4973 187.072 54.4973C184.876 54.4973 183.456 55.9426 183.456 58.2905C183.456 60.1874 184.756 61.9539 187.021 61.9539C188.653 61.9539 189.51 61.1796 189.721 60.8715L188.905 60.2199C188.482 60.8483 187.858 61.232 187.042 61.232C185.38 61.232 184.382 59.8794 184.382 58.2905C184.382 56.5742 185.44 55.2192 187.042 55.2192C187.696 55.2192 188.361 55.5273 188.764 56.0832L189.57 55.4315Z" fill="#404040"/>
<path d="M193.005 61.703H197.789V60.9811H193.971V58.4611H197.355V57.7392H193.971V55.2192H197.607V54.4973H193.005V61.703Z" fill="#404040"/>
<path d="M34.9253 63.0427H35.391V69.8889H34.9253V63.0427Z" fill="#9FD0CB"/>
<path d="M34.9551 62.3662C34.8767 62.3662 34.8128 62.4295 34.8128 62.5073L34.8634 63.0255C34.8634 63.1039 34.9272 63.167 35.0063 63.167H35.333C35.4115 63.167 35.476 63.1039 35.476 63.0255L35.5267 62.5073C35.5267 62.4295 35.4627 62.3662 35.3843 62.3662H35.3736V61.9804C35.7303 61.9197 35.7229 61.5654 35.7229 61.5654C35.7369 61.1019 35.361 60.1542 35.2166 59.8098L35.2206 59.6814L35.1914 59.7492L35.162 59.6814L35.1661 59.8098C35.0217 60.1542 34.6459 61.1019 34.6598 61.5654C34.6598 61.5654 34.6531 61.8907 34.9658 61.9711V62.3662H34.9551Z" fill="#9FD0CB"/>
<path d="M55.7485 64.5H56.2143V69.8888H55.7485V64.5Z" fill="#9FD0CB"/>
<path d="M55.7785 63.9678C55.6999 63.9678 55.6362 64.0174 55.6362 64.0793L55.6866 64.487C55.6866 64.548 55.7506 64.5982 55.8297 64.5982H56.1563C56.2348 64.5982 56.2994 64.548 56.2994 64.487L56.35 64.0793C56.35 64.0174 56.2861 63.9678 56.2075 63.9678H56.1969V63.6643C56.5536 63.617 56.5462 63.3378 56.5462 63.3378C56.5602 62.9723 56.1842 62.2267 56.0398 61.956L56.0439 61.8547L56.0147 61.9081L55.9853 61.8547L55.9894 61.956C55.8449 62.2267 55.4691 62.9723 55.483 63.3378C55.483 63.3378 55.4765 63.5939 55.7891 63.6571V63.9678H55.7785Z" fill="#9FD0CB"/>
<path d="M28.2725 64.5H28.7381V69.8888H28.2725V64.5Z" fill="#9FD0CB"/>
<path d="M28.3024 63.9678C28.2239 63.9678 28.16 64.0174 28.16 64.0793L28.2105 64.487C28.2105 64.548 28.2744 64.5982 28.3536 64.5982H28.6802C28.7588 64.5982 28.8233 64.548 28.8233 64.487L28.8739 64.0793C28.8739 64.0174 28.81 63.9678 28.7315 63.9678H28.7208V63.6643C29.0774 63.617 29.0701 63.3378 29.0701 63.3378C29.0841 62.9723 28.7082 62.2267 28.5638 61.956L28.5678 61.8547L28.5386 61.9081L28.5093 61.8547L28.5132 61.956C28.3689 62.2267 27.993 62.9723 28.007 63.3378C28.007 63.3378 28.0003 63.5939 28.3131 63.6571V63.9678H28.3024Z" fill="#9FD0CB"/>
<path d="M49.0957 63.0427H49.5613V69.8889H49.0957V63.0427Z" fill="#9FD0CB"/>
<path d="M49.1256 62.3662C49.0471 62.3662 48.9832 62.4295 48.9832 62.5073L49.0338 63.0255C49.0338 63.1039 49.0975 63.167 49.1767 63.167H49.5035C49.582 63.167 49.6466 63.1039 49.6466 63.0255L49.697 62.5073C49.697 62.4295 49.6332 62.3662 49.5547 62.3662H49.544V61.9804C49.9006 61.9197 49.8934 61.5654 49.8934 61.5654C49.9073 61.1019 49.5313 60.1542 49.387 59.8098L49.3909 59.6814L49.3618 59.7492L49.3325 59.6814L49.3364 59.8098C49.1921 60.1542 48.8163 61.1019 48.8302 61.5654C48.8302 61.5654 48.8234 61.8907 49.1361 61.9711V62.3662H49.1256Z" fill="#9FD0CB"/>
<path d="M24.9458 64.8181H25.4116V69.8888H24.9458V64.8181Z" fill="#9FD0CB"/>
<path d="M59.3411 68.3743V68.8351H25.2122V68.3743H59.3411Z" fill="#9FD0CB"/>
<path d="M59.3411 65.1472V65.6082H25.2122V65.1472H59.3411Z" fill="#9FD0CB"/>
<path d="M24.976 64.5499C24.8975 64.5499 24.8336 64.5948 24.8336 64.65L24.8841 65.0181C24.8841 65.0735 24.948 65.1183 25.0271 65.1183H25.3538C25.4323 65.1183 25.4967 65.0735 25.4967 65.0181L25.5474 64.65C25.5474 64.5948 25.4836 64.5499 25.4051 64.5499H25.3944V64.2766C25.751 64.2332 25.7436 63.9817 25.7436 63.9817C25.7577 63.6524 25.3817 62.9807 25.2375 62.7363L25.2413 62.6448L25.2121 62.6929L25.1828 62.6448L25.1868 62.7363C25.0425 62.9807 24.6666 63.6524 24.6806 63.9817C24.6806 63.9817 24.6738 64.2126 24.9865 64.2701V64.5499H24.976Z" fill="#9FD0CB"/>
<path d="M45.7693 62.6448H46.2349V69.8887H45.7693V62.6448Z" fill="#9FD0CB"/>
<path d="M45.7992 61.9297C45.7207 61.9297 45.6568 61.996 45.6568 62.079L45.7073 62.627C45.7073 62.7094 45.7714 62.7765 45.8505 62.7765H46.1771C46.2556 62.7765 46.3202 62.7094 46.3202 62.627L46.3706 62.079C46.3706 61.996 46.3068 61.9297 46.2283 61.9297H46.2176V61.5214C46.5744 61.4575 46.567 61.082 46.567 61.082C46.5809 60.5916 46.2049 59.589 46.0606 59.225L46.0647 59.0886L46.0354 59.1605L46.0061 59.0886L46.0102 59.225C45.8658 59.589 45.4899 60.5916 45.5038 61.082C45.5038 61.082 45.4972 61.4264 45.8099 61.5114V61.9297H45.7992Z" fill="#9FD0CB"/>
<path d="M38.2517 62.6448H38.7173V69.8887H38.2517V62.6448Z" fill="#9FD0CB"/>
<path d="M38.2816 61.9297C38.2031 61.9297 38.1393 61.996 38.1393 62.079L38.1898 62.627C38.1898 62.7094 38.2537 62.7765 38.3329 62.7765H38.6595C38.738 62.7765 38.8026 62.7094 38.8026 62.627L38.8531 62.079C38.8531 61.996 38.7892 61.9297 38.7107 61.9297H38.7001V61.5214C39.0567 61.4575 39.0494 61.082 39.0494 61.082C39.0633 60.5916 38.6875 59.589 38.5431 59.225L38.5472 59.0886L38.5178 59.1605L38.4885 59.0886L38.4925 59.225C38.3481 59.589 37.9723 60.5916 37.9862 61.082C37.9862 61.082 37.9796 61.4264 38.2923 61.5114V61.9297H38.2816Z" fill="#9FD0CB"/>
<path d="M59.075 65.0303H59.5405V69.8889H59.075V65.0303Z" fill="#9FD0CB"/>
<path d="M59.1049 64.5499C59.0264 64.5499 58.9624 64.5948 58.9624 64.65L59.0131 65.0181C59.0131 65.0735 59.0768 65.1183 59.1561 65.1183H59.4827C59.5612 65.1183 59.6256 65.0735 59.6256 65.0181L59.6763 64.65C59.6763 64.5948 59.6125 64.5499 59.534 64.5499H59.5233V64.2766C59.8798 64.2332 59.8725 63.9817 59.8725 63.9817C59.8866 63.6524 59.5106 62.9807 59.3663 62.7363L59.3702 62.6448L59.3411 62.6929L59.3118 62.6448L59.3157 62.7363C59.1713 62.9807 58.7955 63.6524 58.8095 63.9817C58.8095 63.9817 58.8027 64.2126 59.1155 64.2701V64.5499H59.1049Z" fill="#9FD0CB"/>
<path d="M31.5989 63.4839H32.0646V69.8888H31.5989V63.4839Z" fill="#9FD0CB"/>
<path d="M31.6287 62.8518C31.5502 62.8518 31.4863 62.9111 31.4863 62.9841L31.537 63.4681C31.537 63.5414 31.6008 63.6006 31.68 63.6006H32.0067C32.0852 63.6006 32.1496 63.5414 32.1496 63.4681L32.2002 62.9841C32.2002 62.9111 32.1363 62.8518 32.0578 62.8518H32.0472V62.491C32.4037 62.4342 32.3965 62.1024 32.3965 62.1024C32.4104 61.6683 32.0345 60.7827 31.8902 60.4607L31.8942 60.3401L31.8649 60.4041L31.8357 60.3401L31.8397 60.4607C31.6953 60.7827 31.3193 61.6683 31.3334 62.1024C31.3334 62.1024 31.3267 62.4066 31.6394 62.4823V62.8518H31.6287Z" fill="#9FD0CB"/>
<path d="M52.4219 63.4839H52.8877V69.8888H52.4219V63.4839Z" fill="#9FD0CB"/>
<path d="M52.452 62.8518C52.3735 62.8518 52.3098 62.9111 52.3098 62.9841L52.3604 63.4681C52.3604 63.5414 52.4242 63.6006 52.5033 63.6006H52.8299C52.9084 63.6006 52.9729 63.5414 52.9729 63.4681L53.0236 62.9841C53.0236 62.9111 52.9597 62.8518 52.8811 62.8518H52.8706V62.491C53.2271 62.4342 53.2198 62.1024 53.2198 62.1024C53.2337 61.6683 52.8579 60.7827 52.7136 60.4607L52.7175 60.3401L52.6882 60.4041L52.6591 60.3401L52.663 60.4607C52.5187 60.7827 52.1427 61.6683 52.1566 62.1024C52.1566 62.1024 52.15 62.4066 52.4627 62.4823V62.8518H52.452Z" fill="#9FD0CB"/>
<path d="M44.5524 70C43.2235 64.6213 43.6477 59.3658 43.5645 56.9582C43.4526 52.162 44.5948 47.3398 46.8343 43.1544C46.126 43.7303 45.4756 44.3844 44.8976 45.1022C43.9312 46.3024 43.1699 47.6803 42.657 49.1556C42.3229 47.8337 41.8059 46.5632 41.128 45.3945C40.4649 44.2512 39.6471 43.207 38.7073 42.3008C40.1603 46.1834 40.9857 50.3223 41.1393 54.4893C41.3864 57.3111 41.4526 65.6238 39.796 70" fill="#9FD0CB"/>
<path d="M37.9903 43.5499C36.5304 42.3984 34.5404 41.9347 32.715 42.3207C31.0908 42.6642 29.6195 43.6679 28.717 45.0481C29.6347 45.8702 30.8143 46.4011 32.0433 46.5451C33.2722 46.689 34.5446 46.4455 35.6306 45.8583C36.614 45.3268 37.4417 44.5168 37.9903 43.5499Z" fill="#9FD0CB"/>
<path d="M36.0435 40.1295C35.3989 38.4878 33.9841 37.1608 32.2934 36.6122C30.7888 36.1239 29.0903 36.2521 27.678 36.9607C28.0357 38.0735 28.7502 39.0711 29.6928 39.7732C30.6355 40.4754 31.8016 40.8789 32.981 40.9108C34.0487 40.9399 35.123 40.6657 36.0435 40.1295Z" fill="#9FD0CB"/>
<path d="M38.4004 37.6535C38.8461 35.9006 38.4586 33.9583 37.3729 32.5049C36.4069 31.2117 34.9086 30.3203 33.3016 30.0828C32.9329 31.2244 32.9324 32.4793 33.2998 33.6211C33.6673 34.763 34.401 35.7864 35.3688 36.5065C36.2449 37.1585 37.3084 37.5609 38.4004 37.6535Z" fill="#9FD0CB"/>
<path d="M41.462 36.0085C42.6977 34.7524 43.3271 32.9359 43.1306 31.1935C42.9559 29.6429 42.1367 28.1733 40.905 27.2C40.0345 27.9802 39.4171 29.0331 39.1641 30.1681C38.9111 31.3033 39.0238 32.5155 39.4818 33.5859C39.8964 34.555 40.5911 35.4049 41.462 36.0085Z" fill="#9FD0CB"/>
<path d="M47.3628 45.1382C48.8198 44.012 50.7952 43.572 52.5993 43.9718C54.2045 44.3276 55.6517 45.3359 56.532 46.7115C55.6152 47.5167 54.4415 48.0312 53.2229 48.162C52.0046 48.2927 50.7468 48.0393 49.6769 47.4473C48.7085 46.9113 47.8964 46.1013 47.3628 45.1382Z" fill="#9FD0CB"/>
<path d="M49.71 41.9364C50.3299 40.4997 51.6233 39.3644 53.1384 38.9269C54.4867 38.5376 55.9886 38.7005 57.2197 39.3696C56.8697 40.3458 56.2067 41.2094 55.3504 41.8046C54.4939 42.3997 53.4481 42.7237 52.4017 42.7178C51.4544 42.7125 50.5101 42.4384 49.71 41.9364Z" fill="#9FD0CB"/>
<path d="M48.4859 38.6683C48.3435 36.8341 49.0698 34.9519 50.4112 33.6788C51.6049 32.5461 53.2629 31.9072 54.9161 31.9426C55.0874 33.1503 54.8699 34.4092 54.3028 35.492C53.736 36.5749 52.8221 37.4764 51.7263 38.0341C50.7343 38.5389 49.5975 38.7614 48.4859 38.6683Z" fill="#9FD0CB"/>
<path d="M45.5193 36.5427C44.7243 35.0788 44.6293 33.2608 45.2677 31.7237C45.8356 30.3558 46.9695 29.2281 48.3484 28.6592C48.936 29.5951 49.2214 30.7138 49.1526 31.8137C49.084 32.9134 48.6619 33.989 47.9624 34.8463C47.3291 35.6223 46.472 36.2173 45.5193 36.5427Z" fill="#9FD0CB"/>
<path d="M40.4139 42.1266C40.5653 41.1857 40.2701 40.184 39.6316 39.4711C39.0634 38.8368 38.2348 38.438 37.3798 38.3877C37.2402 39.004 37.299 39.6629 37.5458 40.2455C37.7926 40.828 38.2262 41.3312 38.7681 41.6646C39.2589 41.9665 39.8362 42.1286 40.4139 42.1266Z" fill="#9FD0CB"/>
<path d="M42.6964 45.8412C43.5983 45.2149 44.195 44.1769 44.2783 43.0897C44.3525 42.1222 44.0237 41.1304 43.3845 40.3948C42.7615 40.772 42.2613 41.3447 41.9742 42.0094C41.6871 42.6741 41.6144 43.4277 41.7694 44.1342C41.9096 44.7739 42.2348 45.3726 42.6964 45.8412Z" fill="#9FD0CB"/>
<path d="M45.4251 42.9277C46.3656 43.0047 47.3332 42.6453 47.99 41.9747C48.5745 41.3782 48.9072 40.5469 48.8939 39.716C48.2748 39.6262 47.6286 39.7319 47.0716 40.0137C46.5144 40.2954 46.0495 40.752 45.7601 41.3011C45.4982 41.7982 45.3809 42.3689 45.4251 42.9277Z" fill="#9FD0CB"/>
<path d="M41.8468 40.6815C42.2517 39.7654 42.2193 38.6705 41.7611 37.7795C41.3534 36.9864 40.618 36.3647 39.763 36.0898C39.4566 36.6794 39.3406 37.3641 39.4357 38.0204C39.5308 38.6765 39.8369 39.3013 40.2984 39.7817C40.7163 40.2166 41.2594 40.5323 41.8468 40.6815Z" fill="#9FD0CB"/>
<path d="M44.7621 40.6117C45.6786 40.5414 46.5528 40.0471 47.0797 39.3014C47.5483 38.6378 47.738 37.7872 47.5948 36.99C46.9856 36.9987 46.3804 37.1995 45.8888 37.5561C45.3971 37.9126 45.0214 38.4233 44.8293 38.9958C44.6552 39.5142 44.6317 40.081 44.7621 40.6117Z" fill="#9FD0CB"/>
<path d="M43.622 39.4624C44.2769 38.8237 44.6231 37.8879 44.5401 36.9817C44.4663 36.1754 44.0573 35.404 43.4287 34.886C42.9687 35.2816 42.6368 35.8212 42.4933 36.4075C42.3496 36.9938 42.3949 37.6239 42.6209 38.1842C42.8255 38.6914 43.1767 39.1398 43.622 39.4624Z" fill="#9FD0CB"/>
<path d="M29.9246 41.6035C28.6675 40.0975 26.7103 39.1887 24.7367 39.1946C22.9805 39.1998 21.2374 39.9212 20 41.1548C20.7686 42.2031 21.8724 43.0068 23.1124 43.4207C24.3522 43.8346 25.7223 43.8569 26.9752 43.4835C28.1096 43.1453 29.1442 42.4859 29.9246 41.6035Z" fill="#9FD0CB"/>
<path d="M32.2958 35.0765C31.9361 33.1556 30.6714 31.4202 28.9434 30.4762C27.4059 29.6363 25.5282 29.4286 23.8413 29.9118C23.9985 31.1977 24.569 32.4309 25.4496 33.3889C26.3301 34.347 27.5168 35.0253 28.7951 35.3014C29.9526 35.5514 31.1806 35.4725 32.2958 35.0765Z" fill="#9FD0CB"/>
<path d="M37.8818 30.7493C38.7114 28.9767 38.6949 26.837 37.8376 25.0772C37.0748 23.5114 35.665 22.2663 34.0067 21.6938C33.3832 22.8326 33.1273 24.1652 33.2853 25.451C33.4433 26.7367 34.0144 27.9697 34.8955 28.9273C35.6932 29.7942 36.7408 30.4333 37.8818 30.7493Z" fill="#9FD0CB"/>
<path d="M44.4245 30.113C46.1224 29.1171 47.3328 27.3441 47.6329 25.4132C47.8999 23.695 47.4501 21.8785 46.4107 20.4773C45.2454 21.0664 44.2722 22.0213 43.6669 23.1696C43.0617 24.318 42.827 25.6543 43.0056 26.9374C43.1671 28.0992 43.665 29.2132 44.4245 30.113Z" fill="#9FD0CB"/>
<path d="M50.9726 31.963C52.9187 31.6386 54.6925 30.4155 55.6742 28.7208C56.548 27.2127 56.7887 25.3578 56.3285 23.6802C55.0269 23.8147 53.7718 24.359 52.7896 25.2148C51.8074 26.0706 51.1028 27.2339 50.8028 28.4948C50.5314 29.6362 50.5909 30.8528 50.9726 31.963Z" fill="#9FD0CB"/>
<path d="M54.5835 37.228C56.3294 38.1391 58.4891 38.2321 60.3084 37.4749C61.9274 36.8009 63.2556 35.471 63.9179 33.8611C62.8011 33.1863 61.4698 32.8651 60.1644 32.9554C58.8592 33.0458 57.5861 33.5472 56.5747 34.3692C55.6592 35.1135 54.9607 36.1163 54.5835 37.228Z" fill="#9FD0CB"/>
<path d="M55.5505 43.5203C56.7853 45.0443 58.7288 45.9813 60.7022 46.004C62.4583 46.0241 64.2119 45.3281 65.4674 44.1125C64.7144 43.0532 63.6226 42.2337 62.389 41.8018C61.1553 41.3701 59.7858 41.328 58.5275 41.6832C57.3882 42.0049 56.3439 42.6493 55.5505 43.5203Z" fill="#9FD0CB"/>
<path d="M38.8857 45.8275C37.1081 45.7501 35.3112 46.4973 34.1226 47.808C33.065 48.9743 32.4993 50.5649 32.5855 52.1299C33.7584 52.2542 34.9687 52.0087 35.9978 51.4376C37.0267 50.8664 37.8696 49.9725 38.3743 48.9169C38.8313 47.9613 39.0107 46.8774 38.8857 45.8275Z" fill="#9FD0CB"/>
<path d="M45.9942 46.2991C45.4395 47.9725 45.6816 49.8868 46.6363 51.3733C47.4856 52.696 48.8803 53.6641 50.4259 54.004C50.8634 52.9194 50.9509 51.6997 50.6727 50.5648C50.3947 49.4299 49.7522 48.3854 48.8617 47.6196C48.0552 46.9263 47.0492 46.4632 45.9942 46.2991Z" fill="#9FD0CB"/>
<path d="M32.5294 47.7621C30.6916 47.0498 28.5349 47.1961 26.8126 48.15C25.28 48.9988 24.11 50.4673 23.6335 52.1404C24.8197 52.6874 26.1788 52.8593 27.4658 52.6251C28.7528 52.391 29.9614 51.7519 30.8735 50.8232C31.6992 49.9824 32.2801 48.9085 32.5294 47.7621Z" fill="#9FD0CB"/>
<path d="M59.514 54.6628C59.2879 52.722 58.146 50.9051 56.4873 49.8463C55.0114 48.9043 53.1524 48.5699 51.436 48.9378C51.5041 50.2313 51.9879 51.5003 52.8004 52.5156C53.6126 53.5312 54.7496 54.2882 56.0061 54.6502C57.1435 54.9779 58.3742 54.9824 59.514 54.6628Z" fill="#9FD0CB"/>
<path d="M28.3807 45.5762C27.2046 44.8599 25.7013 44.6956 24.3956 45.1408C23.2338 45.5368 22.244 46.4041 21.7061 47.4977C22.4542 48.0201 23.3685 48.3055 24.2841 48.3025C25.1995 48.2994 26.1119 48.0078 26.8564 47.4805C27.5305 47.003 28.0652 46.335 28.3807 45.5762Z" fill="#9FD0CB"/>
<path d="M27.0979 37.1214C26.452 35.9133 25.2411 35.0162 23.888 34.7436C22.684 34.501 21.3864 34.7507 20.3621 35.4226C20.7386 36.2486 21.3799 36.954 22.1702 37.4114C22.9606 37.8688 23.8962 38.0762 24.8081 37.996C25.6338 37.9234 26.437 37.6165 27.0979 37.1214Z" fill="#9FD0CB"/>
<path d="M32.9036 29.6835C33.166 28.3416 32.7913 26.8911 31.9102 25.8387C31.1261 24.9021 29.957 24.2912 28.7337 24.1785C28.5035 25.0557 28.5561 26.0032 28.8819 26.8502C29.2075 27.6971 29.805 28.4394 30.566 28.9431C31.2551 29.3991 32.0751 29.6589 32.9036 29.6835Z" fill="#9FD0CB"/>
<path d="M40.8738 26.8806C41.8937 25.959 42.4678 24.5739 42.3955 23.209C42.3312 21.9943 41.7619 20.8133 40.8483 20C40.1348 20.5677 39.6055 21.359 39.3561 22.231C39.1066 23.1029 39.1382 24.0514 39.4449 24.9053C39.7228 25.6783 40.2241 26.3713 40.8738 26.8806Z" fill="#9FD0CB"/>
<path d="M48.3666 28.3227C49.7037 27.9817 50.8667 27.0245 51.4492 25.7852C51.9674 24.6824 52.0236 23.3751 51.6017 22.2327C50.7025 22.4032 49.8603 22.8567 49.2273 23.5112C48.594 24.1658 48.1727 25.0183 48.0396 25.9149C47.9189 26.7266 48.0337 27.5713 48.3666 28.3227Z" fill="#9FD0CB"/>
<path d="M55.3293 31.9184C56.6748 32.2262 58.1525 31.9073 59.2466 31.0733C60.22 30.3313 60.8787 29.1967 61.0364 27.9905C60.1591 27.7315 59.2005 27.7496 58.3337 28.0415C57.4672 28.3334 56.6963 28.8977 56.1605 29.6325C55.6754 30.2978 55.3838 31.0998 55.3293 31.9184Z" fill="#9FD0CB"/>
<path d="M64.9375 38.8875C63.9088 37.9756 62.4587 37.5495 61.094 37.7578C59.8797 37.9431 58.7499 38.6226 58.0242 39.6039C58.6665 40.2497 59.515 40.6915 60.4166 40.8496C61.318 41.0075 62.2683 40.8812 63.0955 40.4932C63.8446 40.1419 64.4908 39.5786 64.9375 38.8875Z" fill="#9FD0CB"/>
<path d="M62.8872 50.3501C62.6535 49.0031 61.7848 47.7774 60.5847 47.1013C59.5167 46.4997 58.205 46.3374 57.0203 46.66C57.1184 47.5611 57.5061 48.429 58.1133 49.1073C58.7204 49.7856 59.5443 50.2709 60.4361 50.4758C61.2437 50.6611 62.1035 50.6171 62.8872 50.3501Z" fill="#9FD0CB"/>
<path d="M38.2414 55.0298C39.2064 54.4571 39.891 53.4427 40.0561 52.3411C40.2031 51.3607 39.9413 50.3266 39.3446 49.5308C38.682 49.8701 38.1301 50.4174 37.7884 51.0738C37.4469 51.7302 37.3172 52.4928 37.4228 53.2237C37.5185 53.8856 37.8056 54.5192 38.2414 55.0298Z" fill="#9FD0CB"/>
<path d="M46.0223 55.6994C46.6697 54.7884 46.8801 53.5865 46.5797 52.5131C46.3126 51.558 45.6494 50.7178 44.7781 50.23C44.3113 50.806 44.0311 51.5277 43.9876 52.265C43.9444 53.0021 44.1381 53.7511 44.5342 54.377C44.8927 54.9435 45.4147 55.4074 46.0223 55.6994Z" fill="#9FD0CB"/>
<path d="M32.9792 56.7386C34.1014 56.6591 35.175 56.06 35.825 55.1508C36.4033 54.342 36.6414 53.3022 36.4721 52.3254C35.7262 52.3319 34.9841 52.5735 34.3798 53.0065C33.7755 53.4395 33.312 54.0618 33.0728 54.7614C32.8562 55.3946 32.8234 56.0882 32.9792 56.7386Z" fill="#9FD0CB"/>
<path d="M49.7462 58.2513C50.1933 57.2291 50.1529 56.0099 49.6387 55.0194C49.1814 54.1377 48.3597 53.4482 47.4064 53.1455C47.0675 53.8034 46.941 54.5665 47.0497 55.297C47.1585 56.0276 47.5017 56.722 48.0179 57.2553C48.4851 57.7381 49.0914 58.0874 49.7462 58.2513Z" fill="#9FD0CB"/>
<path d="M27.9279 55.8181C29.0416 55.9761 30.2192 55.6162 31.0493 54.8646C31.7879 54.1955 32.2437 53.2295 32.2875 52.2393C31.5571 52.089 30.7802 52.1691 30.0969 52.4653C29.4135 52.7616 28.8271 53.2724 28.4433 53.9056C28.0959 54.4789 27.9151 55.1499 27.9279 55.8181Z" fill="#9FD0CB"/>
<path d="M55.1735 57.3233C55.0483 56.2165 54.4006 55.1787 53.457 54.5721C52.6175 54.0323 51.5582 53.8384 50.5791 54.045C50.6156 54.7826 50.8891 55.5068 51.3504 56.0872C51.8114 56.6676 52.4582 57.1012 53.1739 57.3099C53.8217 57.4988 54.5233 57.5035 55.1735 57.3233Z" fill="#9FD0CB"/>
</svg>
