<svg width="27" height="36" viewBox="0 0 27 36" fill="none" xmlns="http://www.w3.org/2000/svg">
<path d="M3.73816 16.7337L3.71151 16.8932C3.41853 18.6468 3.48753 22.5914 3.89718 26.449C4.10106 28.3688 4.38706 30.2449 4.74731 31.7923C4.92746 32.5662 5.12435 33.2498 5.33557 33.8118C5.54929 34.3805 5.76675 34.7948 5.97547 35.0525L5.97552 35.0526C6.29848 35.4516 6.59463 35.5 6.75 35.5C7.27729 35.5 7.64927 35.3415 7.93498 35.0821C8.23304 34.8115 8.47222 34.3986 8.66001 33.8369C9.04059 32.6985 9.15293 31.1397 9.2717 29.4386C9.4281 27.1929 9.62117 25.1847 10.1751 23.7372C10.4557 23.0039 10.8427 22.375 11.3992 21.9303C11.964 21.4789 12.6624 21.25 13.5 21.25C14.3376 21.25 15.036 21.4789 15.6008 21.9303C16.1573 22.375 16.5443 23.0039 16.8249 23.7372C17.3788 25.1847 17.5719 27.1929 17.7283 29.4386M3.73816 16.7337L17.2295 29.4734M3.73816 16.7337L3.66635 16.5888C2.908 15.0585 2.11214 13.1045 1.50668 11.2675C0.895155 9.41201 0.5 7.7407 0.5 6.75C0.5 5.27429 1.07268 3.6979 2.06037 2.49508C3.04438 1.29674 4.41181 0.5 5.99998 0.5C7.58582 0.5 8.70968 0.690713 9.82639 0.880214L9.83162 0.881102L9.91554 0.388195M3.73816 16.7337L9.83189 0.881148M17.7283 29.4386L17.2295 29.4734M17.7283 29.4386C17.7283 29.4386 17.7283 29.4386 17.7283 29.4386L17.2295 29.4734M17.7283 29.4386C17.8471 31.1398 17.9594 32.6985 18.34 33.8369C18.5278 34.3986 18.767 34.8115 19.065 35.0821C19.3507 35.3415 19.7227 35.5 20.25 35.5C20.4053 35.5 20.7015 35.4515 21.0245 35.0526L21.0245 35.0525C21.2333 34.7948 21.4507 34.3806 21.6644 33.8119C21.8757 33.2498 22.0725 32.5662 22.2527 31.7924C22.6129 30.245 22.8989 28.369 23.1028 26.4492C23.5125 22.5916 23.5815 18.6471 23.2885 16.8934L23.2618 16.7339L23.3336 16.589C24.092 15.0586 24.8879 13.1046 25.4933 11.2675C26.1048 9.41202 26.5 7.7407 26.5 6.75C26.5 5.27429 25.9273 3.6979 24.9396 2.49508C23.9556 1.29674 22.5882 0.5 21 0.5C19.4143 0.5 18.2905 0.690696 17.1738 0.88019L17.1684 0.881103L17.0845 0.388195M17.2295 29.4734L17.2295 29.4738C17.4639 32.8304 17.6852 36 20.25 36C20.5474 36 20.9898 35.8901 21.4131 35.3672C23.4771 32.8184 24.3914 20.4609 23.7817 16.811C25.3213 13.704 27 8.90641 27 6.75C27 3.55739 24.5361 0 21 0C19.3722 0 18.2143 0.196475 17.0957 0.386294L17.0845 0.388195M17.0845 0.388195L17.1681 0.881149M17.0845 0.388195L17.0816 0.388689C15.9898 0.574553 14.9592 0.750023 13.5 0.750023C12.0407 0.750023 11.0099 0.574521 9.91814 0.388637L9.91554 0.388195M17.1681 0.881149L5.58689 35.3672C3.52294 32.8183 2.60859 20.4604 3.21834 16.8108C1.67871 13.7039 0 8.90641 0 6.75C0 3.55739 2.46389 0 5.99998 0C7.62797 0 8.78587 0.196493 9.90449 0.38632L9.91554 0.388195M17.1681 0.881149L17.1589 0.882714C16.0665 1.0687 15.0014 1.25002 13.5 1.25002C11.9984 1.25002 10.9333 1.06867 9.84078 0.882662L9.83189 0.881148M17.1681 0.881149L9.83189 0.881148M9.91554 0.388195L9.83189 0.881148" fill="#AEE2CE" stroke="black"/>
</svg>
